<?xml version="1.0" encoding="UTF-8" standalone="no"?>
<!DOCTYPE svg PUBLIC "-//W3C//DTD SVG 1.1//EN" "http://www.w3.org/Graphics/SVG/1.1/DTD/svg11.dtd">
<svg width="100%" height="100%" viewBox="0 0 450 225" version="1.1" xmlns="http://www.w3.org/2000/svg" xmlns:xlink="http://www.w3.org/1999/xlink" xml:space="preserve" xmlns:serif="http://www.serif.com/" style="fill-rule:evenodd;clip-rule:evenodd;stroke-linejoin:round;stroke-miterlimit:2;">
    <g transform="matrix(3.07916,0,0,3.13681,-1010.72,-1985.06)">
        <g transform="matrix(1,0,0,1,21.9963,0)">
            <path d="M367.873,668.556C366.113,668.556 364.735,667.989 363.737,666.856C362.739,665.722 362.24,664.293 362.24,662.568C362.24,660.267 363.221,658.322 365.183,656.732C367.145,655.141 369.852,653.585 373.303,652.063C373.912,651.792 374.411,651.361 374.8,650.769C375.189,650.177 375.383,649.559 375.383,648.916L375.383,646.836C375.383,643.013 373.996,641.067 371.222,641C370.207,641 369.429,641.262 368.888,641.786C368.346,642.311 368.076,643.08 368.076,644.095C368.076,644.501 368.126,644.907 368.228,645.313C368.329,645.719 368.397,645.973 368.431,646.074C368.702,646.886 368.837,647.58 368.837,648.155C368.837,648.866 368.617,649.449 368.177,649.906C367.737,650.363 367.111,650.591 366.299,650.591C365.42,650.591 364.718,650.261 364.193,649.601C363.669,648.942 363.407,648.121 363.407,647.14C363.407,645.787 363.787,644.56 364.549,643.461C365.31,642.361 366.367,641.49 367.72,640.847C369.074,640.204 370.596,639.883 372.288,639.883C373.573,639.883 374.724,640.145 375.739,640.67C376.754,641.194 377.532,641.998 378.073,643.08C378.378,643.655 378.699,643.943 379.037,643.943C379.376,643.943 379.714,643.723 380.052,643.283C380.83,642.201 381.719,641.372 382.717,640.797C383.715,640.221 384.772,639.934 385.888,639.934C387.445,639.934 388.823,640.298 390.024,641.025C391.225,641.752 392.164,642.725 392.841,643.943C393.518,645.161 393.856,646.463 393.856,647.851C393.856,648.866 393.754,649.627 393.551,650.134C393.348,650.642 392.942,651.005 392.333,651.225C391.724,651.445 390.811,651.555 389.593,651.555L382.539,651.555C381.896,651.555 381.38,651.741 380.991,652.113C380.602,652.486 380.391,652.976 380.357,653.585L380.357,654.702C380.357,657.713 380.94,660.14 382.108,661.984C383.275,663.828 384.907,664.75 387.005,664.75C388.392,664.75 389.728,664.183 391.014,663.05C392.3,661.916 393.365,659.929 394.211,657.087C394.279,656.884 394.346,656.732 394.414,656.63C394.482,656.529 394.566,656.478 394.668,656.478C394.837,656.478 394.922,656.562 394.922,656.732C394.922,656.901 394.905,657.053 394.871,657.188C394.093,661.045 392.841,663.904 391.115,665.765C389.39,667.626 387.292,668.556 384.823,668.556C382.86,668.556 381.101,667.981 379.545,666.83C377.989,665.68 376.872,664.175 376.195,662.314C375.992,661.671 375.739,661.35 375.434,661.35C375.197,661.35 374.977,661.586 374.774,662.06C373.76,664.192 372.719,665.807 371.653,666.907C370.588,668.006 369.327,668.556 367.873,668.556ZM367.111,660.741C367.111,661.891 367.357,662.83 367.847,663.557C368.338,664.285 369.074,664.648 370.055,664.648C370.968,664.648 371.831,664.31 372.643,663.633C373.455,662.957 374.115,662.026 374.622,660.842C375.13,659.658 375.383,658.339 375.383,656.884L375.383,653.991C375.383,653.517 375.274,653.145 375.054,652.875C374.834,652.604 374.538,652.469 374.165,652.469C373.895,652.469 373.624,652.536 373.354,652.672C369.192,654.803 367.111,657.493 367.111,660.741ZM380.611,648.815C380.543,649.424 380.695,649.931 381.067,650.337C381.439,650.743 381.93,650.946 382.539,650.946L385.99,650.946C387.106,650.946 387.876,650.684 388.299,650.16C388.722,649.635 388.933,648.815 388.933,647.698C388.933,645.77 388.629,644.18 388.02,642.928C387.411,641.676 386.497,641.05 385.279,641.05C384.095,641.05 383.08,641.752 382.234,643.156C381.389,644.56 380.847,646.447 380.611,648.815Z" style="fill:white;"/>
        </g>
        <g transform="matrix(1,0,0,1,21.9963,0)">
            <path d="M430.953,656.529C430.987,656.156 431.122,655.97 431.359,655.97C431.494,655.97 431.579,656.013 431.613,656.097C431.647,656.182 431.663,656.326 431.663,656.529C431.291,660.588 430.522,663.608 429.354,665.587C428.187,667.566 426.504,668.556 424.305,668.556C422.309,668.556 420.795,667.829 419.763,666.374C418.731,664.919 418.215,662.483 418.215,659.066L418.215,643.435C418.215,642.894 418.08,642.623 417.809,642.623C417.674,642.623 417.522,642.708 417.352,642.877C417.183,643.046 416.862,643.385 416.388,643.892C415.915,644.4 415.399,644.806 414.84,645.11C414.282,645.415 413.665,645.567 412.988,645.567C412.244,645.567 411.567,645.381 410.958,645.009C410.349,644.637 409.656,644.095 408.877,643.385C407.998,642.607 407.22,642.015 406.543,641.609C405.866,641.203 405.071,641 404.158,641C403.177,641 402.39,641.338 401.798,642.015C401.206,642.691 400.91,643.554 400.91,644.603C400.91,645.685 401.333,646.692 402.179,647.622C403.024,648.553 404.479,649.813 406.543,651.403C409.013,653.365 410.738,655.023 411.719,656.376C412.7,657.73 413.191,659.32 413.191,661.147C413.191,663.549 412.506,665.384 411.136,666.653C409.765,667.922 408.032,668.556 405.934,668.556C404.987,668.556 403.769,668.437 402.28,668.201C401.265,668.065 400.588,667.998 400.25,667.998C399.912,667.998 399.497,668.048 399.007,668.15C398.516,668.251 398.186,668.302 398.017,668.302C397.679,668.302 397.51,668.099 397.51,667.693C397.51,665.223 397.171,662.145 396.495,658.457L396.292,657.29L396.241,657.036C396.241,656.799 396.359,656.681 396.596,656.681C396.799,656.681 396.952,656.867 397.053,657.239C397.73,659.607 398.372,661.477 398.981,662.847C399.59,664.217 400.47,665.333 401.62,666.196C402.771,667.059 404.31,667.49 406.238,667.49C407.456,667.49 408.378,667.169 409.004,666.526C409.63,665.883 409.943,665.037 409.943,663.989C409.943,662.635 409.453,661.35 408.471,660.132C407.49,658.914 405.748,657.29 403.244,655.26C401.045,653.534 399.531,652.071 398.702,650.87C397.873,649.669 397.459,648.341 397.459,646.886C397.459,644.823 398.127,643.148 399.464,641.862C400.8,640.577 402.449,639.934 404.412,639.934C405.359,639.934 406.213,640.035 406.974,640.238C407.736,640.441 408.573,640.729 409.486,641.101C410.434,641.473 411.271,641.752 411.998,641.938C412.726,642.124 413.546,642.217 414.46,642.217C416.557,642.217 418.274,641.499 419.611,640.061C420.947,638.623 421.734,636.483 421.97,633.641C422.038,633.337 422.106,633.125 422.173,633.007C422.241,632.888 422.376,632.829 422.579,632.829C422.782,632.829 422.909,632.88 422.96,632.981C423.011,633.083 423.036,633.303 423.036,633.641L423.036,639.528C423.036,640.035 423.205,640.424 423.544,640.695C423.882,640.966 424.322,641.101 424.863,641.101C425.54,641.101 426.487,640.966 427.705,640.695C428.551,640.526 429.143,640.441 429.481,640.441C430.023,640.441 430.293,640.678 430.293,641.152C430.293,641.592 429.989,641.812 429.38,641.812L424.508,641.812C424.102,641.812 423.772,641.938 423.518,642.192C423.265,642.446 423.138,642.776 423.138,643.182L423.138,657.747C423.138,660.216 423.408,662.094 423.95,663.38C424.491,664.665 425.354,665.308 426.538,665.308C427.553,665.308 428.466,664.572 429.278,663.1C430.09,661.629 430.648,659.438 430.953,656.529Z" style="fill:white;"/>
        </g>
        <g transform="matrix(1,0,0,1,21.9963,0)">
            <path d="M435.064,654.346C434.488,654.346 434.201,654.143 434.201,653.737C434.201,653.264 434.488,653.027 435.064,653.027L449.273,653.027C449.848,653.027 450.136,653.247 450.136,653.687C450.136,654.126 449.848,654.346 449.273,654.346L435.064,654.346Z" style="fill:white;"/>
        </g>
        <g transform="matrix(1,0,0,1,361.881,703.471)">
            <path d="M12.535,0.812C10.403,0.812 8.509,0.169 6.851,-1.116C5.193,-2.402 3.908,-4.128 2.994,-6.293C2.081,-8.458 1.624,-10.809 1.624,-13.347C1.624,-16.087 2.055,-18.557 2.918,-20.756C3.781,-22.955 5.041,-24.681 6.699,-25.932C8.357,-27.184 10.302,-27.81 12.535,-27.81C14.666,-27.81 16.561,-27.167 18.219,-25.882C19.876,-24.596 21.162,-22.871 22.076,-20.705C22.989,-18.54 23.446,-16.189 23.446,-13.651C23.446,-10.911 23.006,-8.441 22.126,-6.242C21.247,-4.043 19.986,-2.318 18.346,-1.066C16.705,0.186 14.768,0.812 12.535,0.812ZM6.75,-17.61C6.75,-14.971 7.029,-12.315 7.587,-9.642C8.145,-6.969 8.991,-4.753 10.124,-2.994C11.258,-1.235 12.619,-0.355 14.21,-0.355C15.597,-0.355 16.62,-1.218 17.28,-2.943C17.94,-4.669 18.269,-6.783 18.269,-9.287C18.269,-11.926 17.982,-14.582 17.407,-17.254C16.832,-19.927 15.977,-22.152 14.844,-23.928C13.711,-25.704 12.366,-26.592 10.809,-26.592C9.456,-26.592 8.441,-25.721 7.765,-23.979C7.088,-22.236 6.75,-20.113 6.75,-17.61Z" style="fill:white;"/>
        </g>
        <g transform="matrix(1,0,0,1,361.881,703.471)">
            <path d="M60.086,-11.215C60.12,-11.588 60.255,-11.774 60.492,-11.774C60.627,-11.774 60.712,-11.731 60.746,-11.647C60.78,-11.562 60.797,-11.418 60.797,-11.215C60.424,-7.156 59.655,-4.136 58.488,-2.157C57.32,-0.178 55.637,0.812 53.438,0.812C51.442,0.812 49.928,0.085 48.896,-1.37C47.864,-2.825 47.348,-5.261 47.348,-8.678L47.348,-24.308C47.348,-24.85 47.213,-25.12 46.942,-25.12C46.807,-25.12 46.655,-25.036 46.486,-24.867C46.316,-24.698 45.995,-24.359 45.521,-23.852C45.048,-23.344 44.532,-22.938 43.973,-22.634C43.415,-22.329 42.798,-22.177 42.121,-22.177C41.377,-22.177 40.7,-22.363 40.091,-22.735C39.482,-23.107 38.789,-23.649 38.011,-24.359C37.131,-25.137 36.353,-25.729 35.676,-26.135C34.999,-26.541 34.204,-26.744 33.291,-26.744C32.31,-26.744 31.523,-26.406 30.931,-25.729C30.339,-25.053 30.043,-24.19 30.043,-23.141C30.043,-22.059 30.466,-21.052 31.312,-20.122C32.158,-19.191 33.612,-17.931 35.676,-16.341C38.146,-14.379 39.871,-12.721 40.852,-11.368C41.834,-10.014 42.324,-8.424 42.324,-6.597C42.324,-4.195 41.639,-2.36 40.269,-1.091C38.899,0.178 37.165,0.812 35.067,0.812C34.12,0.812 32.902,0.694 31.413,0.457C30.398,0.321 29.722,0.254 29.383,0.254C29.045,0.254 28.631,0.304 28.14,0.406C27.649,0.507 27.32,0.558 27.15,0.558C26.812,0.558 26.643,0.355 26.643,-0.051C26.643,-2.521 26.305,-5.599 25.628,-9.287L25.425,-10.454L25.374,-10.708C25.374,-10.945 25.493,-11.063 25.729,-11.063C25.932,-11.063 26.085,-10.877 26.186,-10.505C26.863,-8.137 27.506,-6.267 28.115,-4.897C28.724,-3.527 29.603,-2.411 30.754,-1.548C31.904,-0.685 33.443,-0.254 35.372,-0.254C36.59,-0.254 37.512,-0.575 38.137,-1.218C38.763,-1.861 39.076,-2.707 39.076,-3.755C39.076,-5.109 38.586,-6.394 37.605,-7.612C36.623,-8.83 34.881,-10.454 32.377,-12.484C30.178,-14.21 28.664,-15.673 27.835,-16.874C27.007,-18.075 26.592,-19.403 26.592,-20.858C26.592,-22.921 27.26,-24.596 28.597,-25.882C29.933,-27.167 31.582,-27.81 33.545,-27.81C34.492,-27.81 35.346,-27.709 36.107,-27.506C36.869,-27.303 37.706,-27.015 38.62,-26.643C39.567,-26.271 40.404,-25.992 41.132,-25.806C41.859,-25.619 42.679,-25.526 43.593,-25.526C45.69,-25.526 47.407,-26.245 48.744,-27.683C50.08,-29.121 50.867,-31.261 51.104,-34.103C51.171,-34.407 51.239,-34.619 51.307,-34.737C51.374,-34.856 51.51,-34.915 51.713,-34.915C51.916,-34.915 52.042,-34.864 52.093,-34.763C52.144,-34.661 52.169,-34.441 52.169,-34.103L52.169,-28.216C52.169,-27.709 52.339,-27.32 52.677,-27.049C53.015,-26.778 53.455,-26.643 53.996,-26.643C54.673,-26.643 55.62,-26.778 56.838,-27.049C57.684,-27.218 58.276,-27.303 58.614,-27.303C59.156,-27.303 59.426,-27.066 59.426,-26.592C59.426,-26.152 59.122,-25.932 58.513,-25.932L53.641,-25.932C53.235,-25.932 52.905,-25.806 52.651,-25.552C52.398,-25.298 52.271,-24.968 52.271,-24.562L52.271,-9.997C52.271,-7.528 52.541,-5.65 53.083,-4.364C53.624,-3.079 54.487,-2.436 55.671,-2.436C56.686,-2.436 57.599,-3.172 58.411,-4.643C59.223,-6.115 59.782,-8.306 60.086,-11.215Z" style="fill:white;"/>
        </g>
        <g transform="matrix(1,0,0,1,361.881,703.471)">
            <path d="M72.266,0.812C69.356,0.812 67.072,-0.364 65.415,-2.715C63.757,-5.066 62.928,-8.39 62.928,-12.687C62.928,-15.461 63.351,-17.999 64.197,-20.299C65.043,-22.6 66.252,-24.427 67.825,-25.78C69.398,-27.133 71.217,-27.81 73.281,-27.81C74.228,-27.81 75.175,-27.641 76.123,-27.303C76.867,-27.167 77.78,-26.795 78.863,-26.186C79.709,-25.746 80.478,-25.416 81.172,-25.197C81.866,-24.977 82.72,-24.867 83.735,-24.867C84.75,-24.867 85.672,-25.019 86.501,-25.323C87.33,-25.628 88.251,-26.068 89.266,-26.643C90.011,-27.049 90.603,-27.345 91.043,-27.531C91.482,-27.717 91.905,-27.81 92.311,-27.81C92.853,-27.81 93.123,-27.506 93.123,-26.897C93.123,-26.22 93.039,-25.323 92.87,-24.207L92.87,-24.055C92.87,-23.412 93.022,-23.091 93.326,-23.091C93.529,-23.091 93.8,-23.294 94.138,-23.699C96.54,-26.44 98.909,-27.81 101.243,-27.81C103.036,-27.81 104.415,-27.176 105.379,-25.907C106.343,-24.638 106.825,-22.82 106.825,-20.452L106.825,-5.785C106.825,-3.755 107.24,-2.385 108.069,-1.675C108.898,-0.964 110.158,-0.609 111.849,-0.609C112.086,-0.609 112.255,-0.584 112.357,-0.533C112.458,-0.482 112.509,-0.372 112.509,-0.203C112.509,0.101 112.272,0.254 111.799,0.254C110.851,0.254 109.836,0.203 108.754,0.101C107.265,0.034 106.233,0 105.658,0L102.968,0C102.089,0 100.939,0.034 99.518,0.101L98.097,0.152L96.879,0.152L95.102,0.101C93.682,0.034 92.531,0 91.652,0L88.962,0C88.387,0 87.423,0.034 86.069,0.101C85.02,0.203 83.938,0.254 82.821,0.254C82.551,0.254 82.356,0.22 82.238,0.152C82.119,0.085 82.06,-0.034 82.06,-0.203C82.06,-0.474 82.297,-0.609 82.771,-0.609C83.989,-0.609 84.953,-0.744 85.663,-1.015C86.374,-1.286 86.915,-1.793 87.287,-2.537C87.659,-3.282 87.845,-4.364 87.845,-5.785L87.845,-20.705C87.845,-21.788 87.727,-22.575 87.49,-23.065C87.253,-23.556 86.873,-23.869 86.348,-24.004C85.824,-24.139 85.02,-24.207 83.938,-24.207C82.991,-24.207 82.339,-24.097 81.984,-23.877C81.629,-23.657 81.409,-23.285 81.324,-22.761C81.24,-22.236 81.197,-21.297 81.197,-19.944L81.197,-19.893C81.197,-18.878 81.096,-18.117 80.893,-17.61C80.69,-17.102 80.284,-16.73 79.675,-16.493C79.066,-16.256 78.153,-16.138 76.935,-16.138L69.881,-16.138C69.238,-16.138 68.722,-15.943 68.333,-15.554C67.944,-15.165 67.732,-14.683 67.698,-14.108L67.698,-13.042C67.698,-10.031 68.29,-7.604 69.475,-5.76C70.659,-3.916 72.283,-2.994 74.346,-2.994C75.734,-2.994 77.07,-3.561 78.356,-4.694C79.641,-5.828 80.69,-7.815 81.502,-10.657C81.57,-10.86 81.646,-11.012 81.73,-11.114C81.815,-11.215 81.908,-11.266 82.009,-11.266C82.179,-11.266 82.263,-11.182 82.263,-11.012C82.263,-10.843 82.246,-10.691 82.212,-10.556C81.299,-6.665 80.022,-3.798 78.381,-1.954C76.74,-0.11 74.702,0.812 72.266,0.812ZM67.901,-18.929C67.868,-18.32 68.037,-17.813 68.409,-17.407C68.781,-17.001 69.272,-16.798 69.881,-16.798L73.331,-16.798C74.448,-16.798 75.218,-17.06 75.64,-17.584C76.063,-18.109 76.275,-18.929 76.275,-20.046C76.275,-21.974 75.97,-23.573 75.361,-24.841C74.752,-26.11 73.839,-26.744 72.621,-26.744C71.403,-26.744 70.38,-26.034 69.551,-24.613C68.722,-23.192 68.172,-21.297 67.901,-18.929ZM92.768,-6.394C92.768,-4.364 93.089,-2.893 93.732,-1.979C94.375,-1.066 95.61,-0.592 97.437,-0.558C99.162,-0.592 100.338,-1.066 100.964,-1.979C101.59,-2.893 101.903,-4.364 101.903,-6.394L101.903,-20.452C101.903,-21.873 101.632,-22.921 101.091,-23.598C100.549,-24.275 99.737,-24.613 98.655,-24.613C97.166,-24.613 95.813,-24.173 94.595,-23.294C93.377,-22.414 92.768,-21.179 92.768,-19.589L92.768,-6.394Z" style="fill:white;"/>
        </g>
        <g transform="matrix(1.73827,0,0,1.73827,329.305,703.842)">
            <path d="M7.156,0C6.682,0 5.633,0.034 4.009,0.101C2.69,0.203 1.387,0.254 0.101,0.254C-0.169,0.254 -0.355,0.22 -0.457,0.152C-0.558,0.085 -0.609,-0.034 -0.609,-0.203C-0.609,-0.474 -0.389,-0.609 0.051,-0.609C1.878,-0.609 3.206,-0.956 4.034,-1.649C4.863,-2.343 5.278,-3.722 5.278,-5.785L5.278,-34.813C5.312,-36.877 4.906,-38.256 4.06,-38.949C3.214,-39.643 1.878,-39.99 0.051,-39.99C-0.389,-39.99 -0.609,-40.125 -0.609,-40.396C-0.575,-40.565 -0.507,-40.683 -0.406,-40.751C-0.304,-40.819 -0.135,-40.852 0.101,-40.852C1.421,-40.852 2.74,-40.802 4.06,-40.7L7.156,-40.599L14.869,-40.599C19.437,-40.599 22.955,-39.651 25.425,-37.757C27.895,-35.862 29.13,-32.986 29.13,-29.13C29.13,-26.558 28.588,-24.402 27.506,-22.659C26.423,-20.917 24.985,-19.614 23.192,-18.752C21.399,-17.889 19.403,-17.457 17.204,-17.457C16.29,-17.457 14.886,-17.61 12.992,-17.914C12.383,-18.016 11.9,-17.897 11.545,-17.559C11.19,-17.221 11.012,-16.713 11.012,-16.036L11.012,-5.785C11.012,-3.722 11.478,-2.343 12.408,-1.649C13.338,-0.956 14.802,-0.609 16.798,-0.609C17.068,-0.609 17.263,-0.575 17.381,-0.507C17.5,-0.44 17.559,-0.338 17.559,-0.203C17.559,-0.034 17.5,0.085 17.381,0.152C17.263,0.22 17.068,0.254 16.798,0.254C15.377,0.254 13.905,0.203 12.383,0.101L8.932,0L7.156,0ZM11.012,-22.279C11.012,-20.959 11.52,-19.944 12.535,-19.234C13.55,-18.523 14.785,-18.168 16.239,-18.168C17.694,-18.168 18.963,-18.675 20.046,-19.69C21.128,-20.705 21.966,-22.05 22.558,-23.725C23.15,-25.4 23.446,-27.201 23.446,-29.13C23.446,-31.193 23.082,-33.037 22.355,-34.661C21.627,-36.285 20.604,-37.545 19.284,-38.442C17.965,-39.338 16.459,-39.787 14.768,-39.787C13.448,-39.787 12.493,-39.575 11.9,-39.152C11.308,-38.729 11.012,-37.875 11.012,-36.59L11.012,-22.279Z" style="fill:white;"/>
        </g>
    </g>
</svg>
